<?xml version="1.0" encoding="UTF-8" standalone="no"?>
<svg
   xmlns:dc="http://purl.org/dc/elements/1.1/"
   xmlns:cc="http://creativecommons.org/ns#"
   xmlns:rdf="http://www.w3.org/1999/02/22-rdf-syntax-ns#"
   xmlns:svg="http://www.w3.org/2000/svg"
   xmlns="http://www.w3.org/2000/svg"
   xmlns:xlink="http://www.w3.org/1999/xlink"
   xmlns:sodipodi="http://sodipodi.sourceforge.net/DTD/sodipodi-0.dtd"
   xmlns:inkscape="http://www.inkscape.org/namespaces/inkscape"
   data-name="Layer 1"
   id="Layer_1"
   viewBox="0 0 128 128"
   version="1.1"
   sodipodi:docname="instagram.svg"
   inkscape:version="0.92.3 (2405546, 2018-03-11)"
   inkscape:export-filename="C:\Users\emesa\Desktop\DAW2\TFG\Imagenes\Iconos\instagram.png"
   inkscape:export-xdpi="48.98"
   inkscape:export-ydpi="48.98">
  <metadata
     id="metadata1584">
    <rdf:RDF>
      <cc:Work
         rdf:about="">
        <dc:format>image/svg+xml</dc:format>
        <dc:type
           rdf:resource="http://purl.org/dc/dcmitype/StillImage" />
      </cc:Work>
    </rdf:RDF>
  </metadata>
  <sodipodi:namedview
     pagecolor="#ffffff"
     bordercolor="#666666"
     borderopacity="1"
     objecttolerance="10"
     gridtolerance="10"
     guidetolerance="10"
     inkscape:pageopacity="0"
     inkscape:pageshadow="2"
     inkscape:window-width="1600"
     inkscape:window-height="837"
     id="namedview1582"
     showgrid="false"
     inkscape:zoom="1.84375"
     inkscape:cx="-48"
     inkscape:cy="55.481649"
     inkscape:window-x="-8"
     inkscape:window-y="-8"
     inkscape:window-maximized="1"
     inkscape:current-layer="Layer_1" />
  <defs
     id="defs1571">
    <linearGradient
       id="linearGradient2167"
       inkscape:collect="always">
      <stop
         id="stop2161"
         offset="0"
         style="stop-color:#992595;stop-opacity:1" />
      <stop
         style="stop-color:#c64357;stop-opacity:1"
         offset="0.83397734"
         id="stop2163" />
      <stop
         id="stop2165"
         offset="1"
         style="stop-color:#c64357;stop-opacity:0" />
    </linearGradient>
    <linearGradient
       inkscape:collect="always"
       id="linearGradient2141">
      <stop
         style="stop-color:#992595;stop-opacity:1"
         offset="0"
         id="stop2137" />
      <stop
         id="stop2145"
         offset="0.83397734"
         style="stop-color:#c64357;stop-opacity:1" />
      <stop
         style="stop-color:#c64357;stop-opacity:0"
         offset="1"
         id="stop2139" />
    </linearGradient>
    <style
       id="style1569">.cls-1{fill:#062b31;}</style>
    <linearGradient
       inkscape:collect="always"
       xlink:href="#linearGradient2141"
       id="linearGradient2143"
       x1="111.54237"
       y1="16.271187"
       x2="-32.898304"
       y2="170.30508"
       gradientUnits="userSpaceOnUse" />
    <linearGradient
       inkscape:collect="always"
       xlink:href="#linearGradient2141"
       id="linearGradient2149"
       x1="88.406776"
       y1="38.508484"
       x2="36.699169"
       y2="91.399261"
       gradientUnits="userSpaceOnUse" />
    <linearGradient
       inkscape:collect="always"
       xlink:href="#linearGradient2167"
       id="linearGradient2159"
       gradientUnits="userSpaceOnUse"
       x1="111.54237"
       y1="16.271187"
       x2="-30.18644"
       y2="169.22034" />
    <linearGradient
       inkscape:collect="always"
       xlink:href="#linearGradient2167"
       id="linearGradient2175"
       x1="84.410004"
       y1="43.153728"
       x2="106.17509"
       y2="23.628305"
       gradientUnits="userSpaceOnUse" />
  </defs>
  <title
     id="title1573" />
  <path
     class="cls-1"
     d="M83,23a22,22,0,0,1,22,22V83a22,22,0,0,1-22,22H45A22,22,0,0,1,23,83V45A22,22,0,0,1,45,23H83m0-8H45A30.09,30.09,0,0,0,15,45V83a30.09,30.09,0,0,0,30,30H83a30.09,30.09,0,0,0,30-30V45A30.09,30.09,0,0,0,83,15Z"
     id="path1575"
     style="fill-opacity:1;fill:url(#linearGradient2159)"
     inkscape:export-xdpi="69.550003"
     inkscape:export-ydpi="69.550003" />
  <path
     class="cls-1"
     d="M90.14,32a5.73,5.73,0,1,0,5.73,5.73A5.73,5.73,0,0,0,90.14,32Z"
     id="path1577"
     style="fill-opacity:1;fill:url(#linearGradient2175)" />
  <path
     class="cls-1"
     d="M64.27,46.47A17.68,17.68,0,1,1,46.6,64.14,17.7,17.7,0,0,1,64.27,46.47m0-8A25.68,25.68,0,1,0,90,64.14,25.68,25.68,0,0,0,64.27,38.47Z"
     id="path1579"
     style="fill-opacity:1;fill:url(#linearGradient2149)" />
</svg>
