<?xml version="1.0" encoding="UTF-8" standalone="no"?>
<svg
   xmlns:dc="http://purl.org/dc/elements/1.1/"
   xmlns:cc="http://creativecommons.org/ns#"
   xmlns:rdf="http://www.w3.org/1999/02/22-rdf-syntax-ns#"
   xmlns:svg="http://www.w3.org/2000/svg"
   xmlns="http://www.w3.org/2000/svg"
   xmlns:xlink="http://www.w3.org/1999/xlink"
   xmlns:sodipodi="http://sodipodi.sourceforge.net/DTD/sodipodi-0.dtd"
   xmlns:inkscape="http://www.inkscape.org/namespaces/inkscape"
   data-name="Layer 1"
   id="Layer_1"
   viewBox="0 0 128 128"
   version="1.1"
   sodipodi:docname="twitter.svg"
   inkscape:version="0.92.3 (2405546, 2018-03-11)"
   inkscape:export-filename="C:\Users\emesa\Desktop\DAW2\TFG\Imagenes\Iconos\twitter.png"
   inkscape:export-xdpi="38.66993"
   inkscape:export-ydpi="38.66993">
  <metadata
     id="metadata839">
    <rdf:RDF>
      <cc:Work
         rdf:about="">
        <dc:format>image/svg+xml</dc:format>
        <dc:type
           rdf:resource="http://purl.org/dc/dcmitype/StillImage" />
      </cc:Work>
    </rdf:RDF>
  </metadata>
  <sodipodi:namedview
     pagecolor="#ffffff"
     bordercolor="#666666"
     borderopacity="1"
     objecttolerance="10"
     gridtolerance="10"
     guidetolerance="10"
     inkscape:pageopacity="0"
     inkscape:pageshadow="2"
     inkscape:window-width="1600"
     inkscape:window-height="837"
     id="namedview837"
     showgrid="false"
     inkscape:zoom="3.6902135"
     inkscape:cx="-11.245796"
     inkscape:cy="72.401737"
     inkscape:window-x="-8"
     inkscape:window-y="-8"
     inkscape:window-maximized="1"
     inkscape:current-layer="Layer_1" />
  <defs
     id="defs830">
    <linearGradient
       inkscape:collect="always"
       id="linearGradient969">
      <stop
         style="stop-color:#c64357;stop-opacity:1"
         offset="0"
         id="stop965" />
      <stop
         style="stop-color:#9925ff;stop-opacity:0"
         offset="1"
         id="stop967" />
    </linearGradient>
    <linearGradient
       inkscape:collect="always"
       id="linearGradient947">
      <stop
         style="stop-color:#c64357;stop-opacity:1"
         offset="0"
         id="stop943" />
      <stop
         style="stop-color:#9925ff;stop-opacity:0"
         offset="1"
         id="stop945" />
    </linearGradient>
    <style
       id="style828">.cls-1{fill:#062b31;}</style>
    <linearGradient
       inkscape:collect="always"
       xlink:href="#linearGradient947"
       id="linearGradient949"
       x1="61.782028"
       y1="92.739227"
       x2="137.13011"
       y2="9.2752228"
       gradientUnits="userSpaceOnUse" />
    <linearGradient
       inkscape:collect="always"
       xlink:href="#linearGradient969"
       id="linearGradient971"
       x1="61.782028"
       y1="92.739227"
       x2="137.13011"
       y2="9.2752228"
       gradientUnits="userSpaceOnUse" />
  </defs>
  <title
     id="title832" />
  <path
     class="cls-1"
     d="M86.94,30.66a19.58,19.58,0,0,1,14,6.17s7.64-1.5,11.86-4.47c0,0-1.06,5.88-8.09,10.38h.06c.54,0,4.48-.1,10.68-3,0,0-1.19,3.39-9.3,9.84v0c.49,15.26-7.06,43.47-35,53.51A56.36,56.36,0,0,1,52,106.52,53.69,53.69,0,0,1,22.5,97.85C24,98,25.35,98,26.7,98c16.52,0,24.52-8.48,24.08-8.48h-.61c-14,0-17.41-13.4-17.41-13.4a6.46,6.46,0,0,0,3.73.92,20.4,20.4,0,0,0,5-.73c-15.8-3.74-15.21-18.9-15.21-18.9a13.45,13.45,0,0,0,7.2,2.26,7,7,0,0,0,1.26-.1C20.31,48.15,29,34.52,29,34.52c16.26,18.87,36.25,19.54,39,19.54h.33c-1.48-8.86,2.17-17.37,12-22a15.35,15.35,0,0,1,6.54-1.4M106.2,49.6v0M122,18l-12.93,9.08a23.93,23.93,0,0,1-6.34,2.65,26.16,26.16,0,0,0-15.83-5.54h0a21.69,21.69,0,0,0-9.3,2c-9.18,4.31-14.76,11.75-15.87,20.68A49.25,49.25,0,0,1,33.94,30.28l-5.7-6.61L23.54,31a25.19,25.19,0,0,0-3.4,16.66l-.37,9.53a26.24,26.24,0,0,0,5.69,16.68l1,3.9a26.17,26.17,0,0,0,8.36,12.89,37.24,37.24,0,0,1-8.13.86c-1.19,0-2.42-.05-3.66-.15L.1,89.46l18.55,13.63A60.21,60.21,0,0,0,52,113a63,63,0,0,0,21.38-3.8,57.06,57.06,0,0,0,31.7-27.91,68.92,68.92,0,0,0,7.57-28.65c6.63-5.71,8.45-9.35,8.94-10.74l5.12-14.57-7,3.26L122,18Z"
     id="path834"
     inkscape:export-xdpi="53.55759"
     inkscape:export-ydpi="53.55759" />
  <path
     style="fill:url(#linearGradient971);fill-opacity:1;stroke:url(#linearGradient949);stroke-width:0.03693526;stroke-miterlimit:4;stroke-dasharray:none;stroke-opacity:1"
     d="m 47.329341,106.24561 c -7.803132,-0.63346 -16.065014,-3.27017 -22.832626,-7.286819 l -1.401567,-0.831845 4.404522,-0.123964 c 3.166477,-0.08912 5.023918,-0.236011 6.608114,-0.522583 5.374702,-0.972254 9.946125,-2.728941 13.700599,-5.264811 1.183893,-0.79963 2.97006,-2.371029 2.97006,-2.612938 0,-0.07509 -0.883832,-0.187827 -1.964072,-0.250529 -2.441793,-0.141735 -4.7856,-0.80075 -7.10102,-1.996618 -2.061026,-1.064477 -4.547605,-3.327983 -6.061139,-5.517387 -0.901681,-1.304327 -2.265523,-3.94846 -2.584516,-5.010699 l -0.124115,-0.413303 1.174024,0.365398 c 1.409216,0.438598 2.752263,0.459745 5.092484,0.08018 2.634838,-0.427343 2.649431,-0.461051 0.503581,-1.163127 -5.242083,-1.7151 -8.866297,-4.728444 -11.163894,-9.282198 -1.192796,-2.364077 -2.106662,-5.773308 -2.106662,-7.859025 v -0.918487 l 1.005988,0.540151 c 1.664778,0.893879 3.348813,1.357237 5.365269,1.476242 1.027545,0.06064 1.868264,0.04275 1.868264,-0.03976 0,-0.08251 -0.748599,-0.849543 -1.663553,-1.70451 -6.526156,-6.098288 -8.245781,-14.047902 -4.715793,-21.80053 l 0.668239,-1.4676 1.518708,1.659217 c 9.410454,10.281093 22.854207,16.921321 36.003403,17.783039 l 1.945985,0.127527 -0.105211,-0.844237 c -0.297222,-2.384988 -0.316037,-3.171949 -0.118714,-4.965189 0.78473,-7.131471 4.873769,-12.711776 11.720947,-15.995555 2.362776,-1.133143 3.642196,-1.452705 6.290899,-1.571281 5.050575,-0.226103 10.089266,1.713318 13.922985,5.359035 l 0.79723,0.758139 2.30411,-0.590139 c 2.77981,-0.711977 5.52918,-1.719219 7.59843,-2.783721 0.84311,-0.433729 1.59614,-0.817632 1.6734,-0.853116 0.19858,-0.09121 -0.29155,1.240212 -0.90924,2.469924 -1.16217,2.31365 -3.83794,5.324753 -6.12943,6.897597 -0.81782,0.561337 -0.89647,0.666379 -0.53725,0.717493 1.21688,0.173153 5.78694,-0.99106 8.85225,-2.25509 0.74891,-0.308824 1.36165,-0.501689 1.36165,-0.428589 0,0.0731 -0.55164,0.867925 -1.22587,1.766278 -1.28028,1.705878 -4.37727,4.810196 -6.47945,6.494772 l -1.22793,0.984007 -0.22604,3.779192 C 105.10776,68.107618 99.318358,81.642587 89.693179,91.279243 79.08374,101.90134 63.151105,107.53005 47.329341,106.24561 Z"
     id="path923"
     inkscape:connector-curvature="0" />
</svg>
